# xmcd
#
# Track frame offsets: 
#        150
#        9883
#        39199
#        65774
#        91159
#        116174
#        143466
#        179574
#        218174
#        236999
#        252749
#        300072
#        333510
#
# Disc length: 4617 seconds
#
# Revision: 1
# Processed by: cddbd v1.5.2PL0 Copyright (c) Steve Scherf et al.
# Submitted via: ExactAudioCopy v0.99pb4
#
DISCID=af12070d
DTITLE=Bruce Springsteen - CC Paramount Theatre Night, 4-22-05-Asbury 
DTITLE=Park(CD2)
DYEAR=2005
DGENRE=Rock and Roll
TTITLE0=Intro
TTITLE1=Racing In The Street
TTITLE2=The Rising
TTITLE3=Further On (Up The Road)
TTITLE4=Jesus Was An Only Son
TTITLE5=Leah
TTITLE6=The Hitter
TTITLE7=Matamoros Banks
TTITLE8=Waitin' On A Sunny Day
TTITLE9=Bobby Jean
TTITLE10=The Promised Land
TTITLE11=Black Cowboys
TTITLE12=Used Car
EXTD=
EXTT0=
EXTT1=
EXTT2=
EXTT3=
EXTT4=
EXTT5=
EXTT6=
EXTT7=
EXTT8=
EXTT9=
EXTT10=
EXTT11=
EXTT12=
PLAYORDER=
